<svg id="Layer_1" data-name="Layer 1" xmlns="http://www.w3.org/2000/svg" xmlns:xlink="http://www.w3.org/1999/xlink" viewBox="0 0 274.25 150"><defs><style>.cls-1{fill:#bd1218;}.cls-2{fill:#a91314;}.cls-3{fill:url(#linear-gradient);}.cls-4{fill:#1d1d1b;}.cls-5{fill:url(#linear-gradient-2);}.cls-6{fill:url(#linear-gradient-3);}</style><linearGradient id="linear-gradient" x1="20.14" y1="288.34" x2="30.92" y2="318.31" gradientTransform="matrix(1, 0, 0, -1, 0, 400)" gradientUnits="userSpaceOnUse"><stop offset="0" stop-color="#e40e20"/><stop offset="1" stop-color="#781006"/></linearGradient><linearGradient id="linear-gradient-2" x1="32.35" y1="284.39" x2="48.22" y2="328.53" xlink:href="#linear-gradient"/><linearGradient id="linear-gradient-3" x1="39.34" y1="281.97" x2="54.04" y2="322.85" xlink:href="#linear-gradient"/></defs><path class="cls-1" d="M18.35,66.4A56.94,56.94,0,0,0,28.54,99.1a45.75,45.75,0,0,1-2.08-64.66,46.31,46.31,0,0,1,5.06-4.64A56.87,56.87,0,0,0,18.35,66.4Z"/><path class="cls-2" d="M70.69,84.38a16.34,16.34,0,0,1-10,15.18,21.59,21.59,0,0,0,0-30.3A16.33,16.33,0,0,1,70.69,84.38Z"/><path class="cls-3" d="M17.11,101a46.81,46.81,0,0,0,9.66,28.59,38.31,38.31,0,0,1,2.17-59.81A46.9,46.9,0,0,0,17.11,101Z"/><path class="cls-2" d="M78.24,83.69a21,21,0,0,1-20.85,21.17h0a17.81,17.81,0,0,1-2.53-.15,20.86,20.86,0,0,0-1.3-41.65h-1a19.85,19.85,0,0,1,4.79-.56A21,21,0,0,1,78.24,83.64Z"/><path class="cls-2" d="M86.41,83.77a25.34,25.34,0,0,1-25.15,25.54h0a26,26,0,0,1-2.65-.14,25.16,25.16,0,0,0-2-50.2A15.54,15.54,0,0,0,55,59,25,25,0,0,1,86.41,83.74Z"/><path class="cls-4" d="M180.15,86.16c0-2.61.53-4.51,1.48-5.7a5.55,5.55,0,0,1,4.56-1.79c2,0,3.39.56,4.21,1.69s1.25,3,1.26,5.78Zm6-11.4q-5.44,0-8,3.37t-2.6,10.37Q175.55,95,178,98t8.08,3a56.65,56.65,0,0,0,9.36-1l-.08-3.63-1.38.14c-1,.1-2.18.18-3.47.23s-2.44.08-3.46.08a10,10,0,0,1-4.06-.66A4,4,0,0,1,180.89,94a11.16,11.16,0,0,1-.7-4.21H196l.3-3.37q0-11.67-10.12-11.66"/><path class="cls-4" d="M204.24,86.16c0-2.61.53-4.51,1.49-5.7a5.49,5.49,0,0,1,4.54-1.79c2.08,0,3.38.58,4.22,1.69s1.25,3.06,1.25,5.78Zm6-11.4q-5.43,0-8,3.37t-2.6,10.37q0,6.48,2.43,9.47t8.11,3a57.37,57.37,0,0,0,9.34-1l-.1-3.61-1.38.14c-1,.1-2.18.18-3.46.23s-2.44.07-3.46.07a10,10,0,0,1-4.06-.65A4,4,0,0,1,205,94a11.63,11.63,0,0,1-.69-4.21h15.78l.3-3.38q0-11.65-10.12-11.65"/><path class="cls-4" d="M259,79.93A6.89,6.89,0,0,0,256.48,76a8,8,0,0,0-4.8-1.27,16.82,16.82,0,0,0-4.78.71,21.49,21.49,0,0,0-4.35,1.81A5.6,5.6,0,0,0,240,75.38a9.79,9.79,0,0,0-3.56-.63,11,11,0,0,0-3.46.56A18.68,18.68,0,0,0,229.44,77V75.31h-4.6v25.12h4.6V80.54l.8-.41a14.17,14.17,0,0,1,2.45-.84,12.35,12.35,0,0,1,2.84-.36,4.47,4.47,0,0,1,2.84.78,4.25,4.25,0,0,1,1.32,2.53,29.59,29.59,0,0,1,.34,5.15v13h4.65v-13a31.29,31.29,0,0,0-.54-6.83l.84-.41a15.08,15.08,0,0,1,2.62-.84,12.64,12.64,0,0,1,2.87-.33,4.49,4.49,0,0,1,2.85.77,4.19,4.19,0,0,1,1.33,2.53,23.7,23.7,0,0,1,.37,4.9v13.27h4.6V87.06a28.05,28.05,0,0,0-.73-7.13"/><path class="cls-4" d="M120.11,89.59a8,8,0,0,1-.5,2.87,6.4,6.4,0,0,1-1.41,2.24A6.61,6.61,0,0,1,116,96.2a7.36,7.36,0,0,1-5.57,0,6.55,6.55,0,0,1-3.57-3.73,8.33,8.33,0,0,1,0-5.7,6.43,6.43,0,0,1,1.35-2.24,6.31,6.31,0,0,1,2.15-1.46,8,8,0,0,1,5.73,0,6.22,6.22,0,0,1,2.15,1.46,6.63,6.63,0,0,1,1.37,2.24,8.44,8.44,0,0,1,.48,2.82m1.44-7.93a10.59,10.59,0,0,0-3.37-2.25,11.2,11.2,0,0,0-7-.46l-.64.18,9-14.14h-5.28L105,80.12a32.37,32.37,0,0,0-2.16,4.38,13.88,13.88,0,0,0-.93,5.06,12.1,12.1,0,0,0,.84,4.57,10.11,10.11,0,0,0,2.4,3.54,11.16,11.16,0,0,0,3.61,2.3,12.88,12.88,0,0,0,9.07,0,11.38,11.38,0,0,0,3.62-2.3,10,10,0,0,0,2.39-3.54,11.73,11.73,0,0,0,.84-4.57,12,12,0,0,0-.84-4.44,10.29,10.29,0,0,0-2.28-3.5"/><polygon class="cls-4" points="153.59 94.05 145.04 65.86 136.72 65.86 136.72 100.43 141.47 100.43 141.47 71.09 142.16 71.09 151.07 99.07 156.11 99.07 164.97 71.09 165.71 71.09 165.71 100.43 170.45 100.43 170.45 65.86 162.1 65.86 153.59 94.05"/><path class="cls-1" d="M25.35,68.08A58.7,58.7,0,0,0,38,104.75a52.18,52.18,0,0,1-17.12-38.9c0-23.06,14.62-42.57,34.74-49.1C37.64,26.26,25.35,45.68,25.35,68.08Z"/><path class="cls-5" d="M43,142.41a48,48,0,0,1,8.82-86.07c-16.55,8-28,25.46-28,45.78A51.08,51.08,0,0,0,43,142.41Z"/><path class="cls-1" d="M51.13,113.3A55.65,55.65,0,0,1,66.5,15.64,61.55,61.55,0,0,0,51.13,113.3Z"/><path class="cls-6" d="M51.86,143.77c-15.17-7-25.73-22.84-25.73-41.32S36.71,68.12,51.86,61.13a49.93,49.93,0,0,0,0,82.64Z"/></svg>